<svg xmlns="http://www.w3.org/2000/svg" xmlns:xlink="http://www.w3.org/1999/xlink" width="500" zoomAndPan="magnify" viewBox="0 0 375 374.999991" height="500" preserveAspectRatio="xMidYMid meet" version="1.0"><defs><g/></defs><rect x="-37.5" width="450" fill="#ffffff" y="-37.499999" height="449.999989" fill-opacity="1"/><rect x="-37.5" width="450" fill="#ffffff" y="-37.499999" height="449.999989" fill-opacity="1"/><g fill="#000000" fill-opacity="1"><g transform="translate(65.943529, 205.295655)"><g><path d="M 3.828125 0 L 3.828125 -32.78125 L 15.140625 -32.78125 L 15.140625 -29.328125 L 15.28125 -29.328125 C 18.21875 -32.273438 21.347656 -33.75 24.671875 -33.75 C 27.054688 -33.75 29.289062 -33.253906 31.375 -32.265625 C 33.46875 -31.285156 35.046875 -29.773438 36.109375 -27.734375 C 39.429688 -31.742188 43.050781 -33.75 46.96875 -33.75 C 50.46875 -33.75 53.472656 -32.765625 55.984375 -30.796875 C 58.492188 -28.835938 59.75 -25.769531 59.75 -21.59375 L 59.75 0 L 48.4375 0 L 48.4375 -18.53125 C 48.4375 -20.28125 47.957031 -21.738281 47 -22.90625 C 46.039062 -24.082031 44.601562 -24.671875 42.6875 -24.671875 C 41.03125 -24.671875 39.765625 -24.171875 38.890625 -23.171875 C 38.015625 -22.171875 37.535156 -20.96875 37.453125 -19.5625 L 37.453125 0 L 26.140625 0 L 26.140625 -18.53125 C 26.140625 -20.28125 25.660156 -21.738281 24.703125 -22.90625 C 23.742188 -24.082031 22.304688 -24.671875 20.390625 -24.671875 C 18.640625 -24.671875 17.328125 -24.125 16.453125 -23.03125 C 15.578125 -21.945312 15.140625 -20.660156 15.140625 -19.171875 L 15.140625 0 Z M 3.828125 0 "/></g></g></g><g fill="#000000" fill-opacity="1"><g transform="translate(122.868463, 205.295655)"><g><path d="M 6.0625 -4.0625 C 3 -7.40625 1.46875 -11.503906 1.46875 -16.359375 C 1.46875 -21.210938 3 -25.320312 6.0625 -28.6875 C 9.132812 -32.0625 13.035156 -33.75 17.765625 -33.75 C 22.109375 -33.75 25.6875 -32.382812 28.5 -29.65625 L 28.5 -32.78125 L 39.8125 -32.78125 L 39.8125 0 L 28.625 0 L 28.625 -3.703125 L 28.5 -3.703125 C 25.6875 -0.597656 22.109375 0.953125 17.765625 0.953125 C 13.035156 0.953125 9.132812 -0.71875 6.0625 -4.0625 Z M 15.6875 -21.921875 C 14.21875 -20.472656 13.484375 -18.617188 13.484375 -16.359375 C 13.484375 -14.097656 14.1875 -12.253906 15.59375 -10.828125 C 17 -9.398438 18.851562 -8.6875 21.15625 -8.6875 C 23.363281 -8.6875 25.179688 -9.410156 26.609375 -10.859375 C 28.035156 -12.304688 28.75 -14.140625 28.75 -16.359375 C 28.75 -18.617188 28.015625 -20.472656 26.546875 -21.921875 C 25.078125 -23.367188 23.28125 -24.09375 21.15625 -24.09375 C 18.976562 -24.09375 17.15625 -23.367188 15.6875 -21.921875 Z M 15.6875 -21.921875 "/></g></g></g><g fill="#000000" fill-opacity="1"><g transform="translate(160.498443, 205.295655)"><g><path d="M 18.078125 -33.75 C 19.953125 -33.75 21.804688 -33.535156 23.640625 -33.109375 C 25.472656 -32.679688 26.835938 -32.253906 27.734375 -31.828125 L 29.078125 -31.1875 L 25.375 -23.765625 C 22.8125 -25.128906 20.378906 -25.8125 18.078125 -25.8125 C 16.804688 -25.8125 15.90625 -25.671875 15.375 -25.390625 C 14.84375 -25.117188 14.578125 -24.601562 14.578125 -23.84375 C 14.578125 -23.664062 14.597656 -23.488281 14.640625 -23.3125 C 14.679688 -23.144531 14.765625 -22.988281 14.890625 -22.84375 C 15.015625 -22.695312 15.128906 -22.566406 15.234375 -22.453125 C 15.347656 -22.347656 15.53125 -22.234375 15.78125 -22.109375 C 16.039062 -21.984375 16.242188 -21.890625 16.390625 -21.828125 C 16.535156 -21.765625 16.78125 -21.664062 17.125 -21.53125 C 17.46875 -21.40625 17.722656 -21.3125 17.890625 -21.25 C 18.066406 -21.1875 18.351562 -21.085938 18.75 -20.953125 C 19.15625 -20.828125 19.46875 -20.742188 19.6875 -20.703125 C 21.007812 -20.316406 22.160156 -19.890625 23.140625 -19.421875 C 24.117188 -18.953125 25.148438 -18.3125 26.234375 -17.5 C 27.316406 -16.695312 28.15625 -15.675781 28.75 -14.4375 C 29.351562 -13.207031 29.65625 -11.800781 29.65625 -10.21875 C 29.65625 -2.769531 24.476562 0.953125 14.125 0.953125 C 11.78125 0.953125 9.550781 0.59375 7.4375 -0.125 C 5.332031 -0.851562 3.8125 -1.578125 2.875 -2.296875 L 1.46875 -3.453125 L 6.078125 -11.1875 C 6.410156 -10.882812 6.851562 -10.53125 7.40625 -10.125 C 7.96875 -9.71875 8.972656 -9.160156 10.421875 -8.453125 C 11.867188 -7.753906 13.125 -7.40625 14.1875 -7.40625 C 16.53125 -7.40625 17.703125 -8.195312 17.703125 -9.78125 C 17.703125 -10.5 17.398438 -11.0625 16.796875 -11.46875 C 16.203125 -11.875 15.191406 -12.332031 13.765625 -12.84375 C 12.335938 -13.351562 11.222656 -13.820312 10.421875 -14.25 C 8.367188 -15.3125 6.742188 -16.515625 5.546875 -17.859375 C 4.359375 -19.203125 3.765625 -20.984375 3.765625 -23.203125 C 3.765625 -26.523438 5.050781 -29.113281 7.625 -30.96875 C 10.207031 -32.820312 13.691406 -33.75 18.078125 -33.75 Z M 18.078125 -33.75 "/></g></g></g><g fill="#000000" fill-opacity="1"><g transform="translate(185.925325, 205.295655)"><g><path d="M 37.5625 -28.6875 C 40.632812 -25.320312 42.171875 -21.210938 42.171875 -16.359375 C 42.171875 -11.503906 40.632812 -7.40625 37.5625 -4.0625 C 34.5 -0.71875 30.601562 0.953125 25.875 0.953125 C 21.53125 0.953125 17.953125 -0.597656 15.140625 -3.703125 L 15.015625 -3.703125 L 15.015625 0 L 3.828125 0 L 3.828125 -54.953125 L 15.140625 -54.953125 L 15.140625 -29.65625 C 17.953125 -32.382812 21.53125 -33.75 25.875 -33.75 C 30.601562 -33.75 34.5 -32.0625 37.5625 -28.6875 Z M 28.046875 -10.828125 C 29.453125 -12.253906 30.15625 -14.097656 30.15625 -16.359375 C 30.15625 -18.617188 29.421875 -20.472656 27.953125 -21.921875 C 26.484375 -23.367188 24.664062 -24.09375 22.5 -24.09375 C 20.363281 -24.09375 18.5625 -23.367188 17.09375 -21.921875 C 15.625 -20.472656 14.890625 -18.617188 14.890625 -16.359375 C 14.890625 -14.140625 15.601562 -12.304688 17.03125 -10.859375 C 18.457031 -9.410156 20.28125 -8.6875 22.5 -8.6875 C 24.800781 -8.6875 26.648438 -9.398438 28.046875 -10.828125 Z M 28.046875 -10.828125 "/></g></g></g><g fill="#000000" fill-opacity="1"><g transform="translate(223.555304, 205.295655)"><g><path d="M 37 -14.828125 L 13.234375 -14.828125 C 13.234375 -12.523438 13.976562 -10.816406 15.46875 -9.703125 C 16.957031 -8.597656 18.578125 -8.046875 20.328125 -8.046875 C 22.148438 -8.046875 23.59375 -8.289062 24.65625 -8.78125 C 25.726562 -9.269531 26.945312 -10.238281 28.3125 -11.6875 L 36.484375 -7.609375 C 33.078125 -1.898438 27.410156 0.953125 19.484375 0.953125 C 14.546875 0.953125 10.304688 -0.738281 6.765625 -4.125 C 3.234375 -7.507812 1.46875 -11.585938 1.46875 -16.359375 C 1.46875 -21.128906 3.234375 -25.21875 6.765625 -28.625 C 10.304688 -32.039062 14.546875 -33.75 19.484375 -33.75 C 24.679688 -33.75 28.910156 -32.242188 32.171875 -29.234375 C 35.429688 -26.234375 37.0625 -21.941406 37.0625 -16.359375 C 37.0625 -15.585938 37.039062 -15.078125 37 -14.828125 Z M 13.546875 -21.09375 L 26.015625 -21.09375 C 25.753906 -22.789062 25.078125 -24.097656 23.984375 -25.015625 C 22.898438 -25.929688 21.507812 -26.390625 19.8125 -26.390625 C 17.9375 -26.390625 16.441406 -25.898438 15.328125 -24.921875 C 14.222656 -23.941406 13.628906 -22.664062 13.546875 -21.09375 Z M 13.546875 -21.09375 "/></g></g></g><g fill="#000000" fill-opacity="1"><g transform="translate(256.074044, 205.295655)"><g><path d="M 5.75 -32.78125 L 5.75 -44.984375 L 17.0625 -44.984375 L 17.0625 -32.78125 L 23.96875 -32.78125 L 23.96875 -24.15625 L 17.0625 -24.15625 L 17.0625 -13.734375 C 17.0625 -10.710938 17.914062 -9.203125 19.625 -9.203125 C 20.050781 -9.203125 20.5 -9.285156 20.96875 -9.453125 C 21.4375 -9.628906 21.796875 -9.800781 22.046875 -9.96875 L 22.4375 -10.21875 L 25.25 -1.09375 C 22.8125 0.269531 20.039062 0.953125 16.9375 0.953125 C 14.800781 0.953125 12.96875 0.582031 11.4375 -0.15625 C 9.90625 -0.90625 8.742188 -1.90625 7.953125 -3.15625 C 7.171875 -4.414062 6.609375 -5.738281 6.265625 -7.125 C 5.921875 -8.507812 5.75 -9.988281 5.75 -11.5625 L 5.75 -24.15625 L 1.015625 -24.15625 L 1.015625 -32.78125 Z M 5.75 -32.78125 "/></g></g></g><g fill="#000000" fill-opacity="1"><g transform="translate(275.303538, 205.295655)"><g><path d="M 11.125 -13.671875 C 13.164062 -13.671875 14.898438 -12.957031 16.328125 -11.53125 C 17.753906 -10.101562 18.46875 -8.367188 18.46875 -6.328125 C 18.46875 -4.328125 17.753906 -2.613281 16.328125 -1.1875 C 14.898438 0.238281 13.164062 0.953125 11.125 0.953125 C 9.113281 0.953125 7.394531 0.238281 5.96875 -1.1875 C 4.539062 -2.613281 3.828125 -4.328125 3.828125 -6.328125 C 3.828125 -8.367188 4.539062 -10.101562 5.96875 -11.53125 C 7.394531 -12.957031 9.113281 -13.671875 11.125 -13.671875 Z M 11.125 -13.671875 "/></g></g></g><g fill="#000000" fill-opacity="1"><g transform="translate(291.599764, 205.295655)"><g/></g></g><g fill="#ff3131" fill-opacity="1"><g transform="translate(151.656778, 217.231651)"><g><path d="M 10.75 -7.953125 L 9.34375 0 L 7.265625 0 L 8.3125 -5.828125 L 6 0 L 3.59375 0 L 3.328125 -5.828125 L 2.3125 0 L 0.234375 0 L 1.65625 -7.953125 L 5.03125 -7.953125 L 5.21875 -2.234375 L 7.28125 -7.953125 Z M 10.75 -7.953125 "/></g></g></g><g fill="#ff3131" fill-opacity="1"><g transform="translate(161.850961, 217.231651)"><g><path d="M 5.21875 -2.0625 L 2.71875 -2.0625 L 1.703125 0 L -0.5 0 L 3.703125 -7.953125 L 6.390625 -7.953125 L 7.78125 0 L 5.53125 0 Z M 5 -3.671875 L 4.65625 -6.03125 L 3.5 -3.671875 Z M 5 -3.671875 "/></g></g></g><g fill="#ff3131" fill-opacity="1"><g transform="translate(169.646433, 217.231651)"><g><path d="M 7.96875 -6.34375 L 5.390625 -6.34375 L 4.28125 0 L 2.203125 0 L 3.328125 -6.34375 L 0.71875 -6.34375 L 1.03125 -7.953125 L 8.265625 -7.953125 Z M 7.96875 -6.34375 "/></g></g></g><g fill="#ff3131" fill-opacity="1"><g transform="translate(176.576992, 217.231651)"><g><path d="M 3.4375 -6.34375 L 3.171875 -4.796875 L 6.84375 -4.796875 L 6.5625 -3.1875 L 2.890625 -3.1875 L 2.609375 -1.609375 L 6.625 -1.609375 L 6.34375 0 L 0.234375 0 L 1.65625 -7.953125 L 7.640625 -7.953125 L 7.34375 -6.34375 Z M 3.4375 -6.34375 "/></g></g></g><g fill="#ff3131" fill-opacity="1"><g transform="translate(183.461413, 217.231651)"><g><path d="M 7.875 -6.15625 C 7.875 -4.925781 7.191406 -4.132812 5.828125 -3.78125 C 6.191406 -3.625 6.441406 -3.367188 6.578125 -3.015625 C 6.710938 -2.660156 6.78125 -2.164062 6.78125 -1.53125 C 6.78125 -1.195312 6.800781 -0.90625 6.84375 -0.65625 C 6.894531 -0.40625 6.960938 -0.1875 7.046875 0 L 4.78125 0 C 4.75 -0.21875 4.726562 -0.453125 4.71875 -0.703125 C 4.707031 -0.953125 4.703125 -1.304688 4.703125 -1.765625 C 4.703125 -2.148438 4.640625 -2.445312 4.515625 -2.65625 C 4.390625 -2.875 4.207031 -2.992188 3.96875 -3.015625 C 3.851562 -3.015625 3.742188 -3.015625 3.640625 -3.015625 C 3.546875 -3.015625 3.441406 -3.015625 3.328125 -3.015625 L 2.84375 -3.015625 L 2.3125 0 L 0.234375 0 L 1.65625 -7.953125 L 4.8125 -7.953125 C 5.050781 -7.953125 5.265625 -7.945312 5.453125 -7.9375 C 5.640625 -7.9375 5.835938 -7.925781 6.046875 -7.90625 C 6.378906 -7.863281 6.679688 -7.773438 6.953125 -7.640625 C 7.234375 -7.515625 7.457031 -7.328125 7.625 -7.078125 C 7.789062 -6.835938 7.875 -6.53125 7.875 -6.15625 Z M 3.109375 -4.515625 L 3.875 -4.515625 C 3.976562 -4.515625 4.078125 -4.515625 4.171875 -4.515625 C 4.265625 -4.515625 4.347656 -4.519531 4.421875 -4.53125 C 4.628906 -4.550781 4.820312 -4.59375 5 -4.65625 C 5.1875 -4.726562 5.332031 -4.835938 5.4375 -4.984375 C 5.550781 -5.140625 5.609375 -5.347656 5.609375 -5.609375 C 5.609375 -5.878906 5.53125 -6.0625 5.375 -6.15625 C 5.21875 -6.257812 5.023438 -6.316406 4.796875 -6.328125 C 4.722656 -6.335938 4.640625 -6.34375 4.546875 -6.34375 C 4.453125 -6.34375 4.351562 -6.34375 4.25 -6.34375 L 3.4375 -6.34375 Z M 3.109375 -4.515625 "/></g></g></g><g fill="#ff3131" fill-opacity="1"><g transform="translate(190.795594, 217.231651)"><g><path d="M 2.3125 0 L 0.234375 0 L 1.65625 -7.953125 L 3.71875 -7.953125 Z M 2.3125 0 "/></g></g></g><g fill="#ff3131" fill-opacity="1"><g transform="translate(193.966631, 217.231651)"><g><path d="M 5.21875 -2.0625 L 2.71875 -2.0625 L 1.703125 0 L -0.5 0 L 3.703125 -7.953125 L 6.390625 -7.953125 L 7.78125 0 L 5.53125 0 Z M 5 -3.671875 L 4.65625 -6.03125 L 3.5 -3.671875 Z M 5 -3.671875 "/></g></g></g><g fill="#ff3131" fill-opacity="1"><g transform="translate(201.762104, 217.231651)"><g><path d="M 7.15625 -1.75 L 6.84375 0 L 0.734375 0 L 1.296875 -3.234375 L 0.234375 -2.703125 L 0.46875 -4.015625 L 1.53125 -4.53125 L 2.140625 -7.953125 L 4.21875 -7.953125 L 3.8125 -5.625 L 5 -6.203125 L 4.78125 -4.90625 L 3.578125 -4.328125 L 3.125 -1.75 Z M 7.15625 -1.75 "/></g></g></g><g fill="#ff3131" fill-opacity="1"><g transform="translate(209.004029, 217.231651)"><g><path d="M 5.140625 -2.984375 L 4.609375 0 L 2.53125 0 L 3.078125 -3.0625 L 1.140625 -7.953125 L 3.359375 -7.953125 L 4.453125 -4.78125 L 6.53125 -7.953125 L 8.828125 -7.953125 Z M 5.140625 -2.984375 "/></g></g></g><g fill="#ff3131" fill-opacity="1"><g transform="translate(216.522729, 217.231651)"><g/></g></g><g fill="#ff3131" fill-opacity="1"><g transform="translate(217.641029, 217.231651)"><g><path d="M 6.140625 -4.296875 C 6.546875 -4.160156 6.847656 -3.941406 7.046875 -3.640625 C 7.242188 -3.335938 7.34375 -2.976562 7.34375 -2.5625 C 7.34375 -2.15625 7.257812 -1.800781 7.09375 -1.5 C 6.925781 -1.207031 6.703125 -0.957031 6.421875 -0.75 C 6.148438 -0.550781 5.851562 -0.394531 5.53125 -0.28125 C 5.207031 -0.164062 4.894531 -0.0859375 4.59375 -0.046875 C 4.394531 -0.0234375 4.210938 -0.0078125 4.046875 0 C 3.878906 0 3.664062 0 3.40625 0 L 0.234375 0 L 1.65625 -7.953125 L 4.90625 -7.953125 C 5.125 -7.953125 5.296875 -7.945312 5.421875 -7.9375 C 5.554688 -7.9375 5.722656 -7.925781 5.921875 -7.90625 C 6.492188 -7.84375 6.921875 -7.648438 7.203125 -7.328125 C 7.492188 -7.003906 7.640625 -6.625 7.640625 -6.1875 C 7.640625 -5.738281 7.515625 -5.347656 7.265625 -5.015625 C 7.015625 -4.691406 6.640625 -4.453125 6.140625 -4.296875 Z M 3.4375 -6.34375 L 3.171875 -4.8125 L 4.109375 -4.8125 C 4.285156 -4.8125 4.457031 -4.828125 4.625 -4.859375 C 4.851562 -4.890625 5.039062 -4.96875 5.1875 -5.09375 C 5.332031 -5.226562 5.40625 -5.441406 5.40625 -5.734375 C 5.40625 -6.066406 5.234375 -6.257812 4.890625 -6.3125 C 4.742188 -6.332031 4.570312 -6.34375 4.375 -6.34375 Z M 4.25 -1.625 C 4.457031 -1.644531 4.660156 -1.738281 4.859375 -1.90625 C 5.054688 -2.070312 5.15625 -2.304688 5.15625 -2.609375 C 5.15625 -2.828125 5.085938 -2.992188 4.953125 -3.109375 C 4.828125 -3.222656 4.671875 -3.289062 4.484375 -3.3125 C 4.410156 -3.320312 4.328125 -3.328125 4.234375 -3.328125 C 4.148438 -3.328125 4.0625 -3.328125 3.96875 -3.328125 L 2.90625 -3.328125 L 2.609375 -1.609375 L 3.71875 -1.609375 C 3.8125 -1.609375 3.898438 -1.609375 3.984375 -1.609375 C 4.078125 -1.609375 4.164062 -1.613281 4.25 -1.625 Z M 4.25 -1.625 "/></g></g></g><g fill="#ff3131" fill-opacity="1"><g transform="translate(225.032882, 217.231651)"><g><path d="M 8.703125 -7.953125 L 7.96875 -3.71875 C 7.925781 -3.457031 7.890625 -3.242188 7.859375 -3.078125 C 7.828125 -2.921875 7.78125 -2.722656 7.71875 -2.484375 C 7.59375 -1.972656 7.390625 -1.515625 7.109375 -1.109375 C 6.828125 -0.710938 6.429688 -0.398438 5.921875 -0.171875 C 5.421875 0.046875 4.765625 0.15625 3.953125 0.15625 C 3.210938 0.15625 2.601562 0.0507812 2.125 -0.15625 C 1.65625 -0.363281 1.300781 -0.640625 1.0625 -0.984375 C 0.832031 -1.335938 0.71875 -1.734375 0.71875 -2.171875 C 0.71875 -2.378906 0.734375 -2.597656 0.765625 -2.828125 C 0.796875 -3.066406 0.847656 -3.40625 0.921875 -3.84375 L 1.65625 -7.953125 L 3.71875 -7.953125 L 2.875 -3.109375 C 2.851562 -2.984375 2.832031 -2.867188 2.8125 -2.765625 C 2.800781 -2.660156 2.796875 -2.550781 2.796875 -2.4375 C 2.796875 -2.09375 2.925781 -1.828125 3.1875 -1.640625 C 3.445312 -1.453125 3.753906 -1.359375 4.109375 -1.359375 C 4.515625 -1.359375 4.847656 -1.445312 5.109375 -1.625 C 5.367188 -1.8125 5.5625 -2.148438 5.6875 -2.640625 C 5.695312 -2.710938 5.707031 -2.78125 5.71875 -2.84375 C 5.738281 -2.914062 5.757812 -3.003906 5.78125 -3.109375 L 6.625 -7.953125 Z M 8.703125 -7.953125 "/></g></g></g><g fill="#ff3131" fill-opacity="1"><g transform="translate(232.966747, 217.231651)"><g><path d="M 5.65625 -7.90625 C 6.1875 -7.84375 6.65625 -7.6875 7.0625 -7.4375 C 7.476562 -7.1875 7.804688 -6.820312 8.046875 -6.34375 C 8.296875 -5.875 8.421875 -5.285156 8.421875 -4.578125 C 8.421875 -3.804688 8.265625 -3.09375 7.953125 -2.4375 C 7.648438 -1.78125 7.191406 -1.238281 6.578125 -0.8125 C 5.960938 -0.382812 5.191406 -0.125 4.265625 -0.03125 C 4.054688 -0.0195312 3.882812 -0.0078125 3.75 0 C 3.625 0 3.453125 0 3.234375 0 L 0.234375 0 L 1.65625 -7.953125 L 4.546875 -7.953125 C 4.753906 -7.953125 4.941406 -7.945312 5.109375 -7.9375 C 5.273438 -7.9375 5.457031 -7.925781 5.65625 -7.90625 Z M 4.0625 -1.640625 C 4.5625 -1.679688 4.96875 -1.835938 5.28125 -2.109375 C 5.601562 -2.390625 5.84375 -2.738281 6 -3.15625 C 6.15625 -3.570312 6.234375 -4.023438 6.234375 -4.515625 C 6.234375 -5.117188 6.113281 -5.5625 5.875 -5.84375 C 5.644531 -6.125 5.3125 -6.28125 4.875 -6.3125 C 4.75 -6.332031 4.628906 -6.34375 4.515625 -6.34375 C 4.410156 -6.34375 4.28125 -6.34375 4.125 -6.34375 L 3.4375 -6.34375 L 2.609375 -1.609375 L 3.3125 -1.609375 C 3.46875 -1.609375 3.597656 -1.609375 3.703125 -1.609375 C 3.804688 -1.617188 3.925781 -1.628906 4.0625 -1.640625 Z M 4.0625 -1.640625 "/></g></g></g><g fill="#ff3131" fill-opacity="1"><g transform="translate(241.165853, 217.231651)"><g><path d="M 5.390625 -8.125 C 6.203125 -8.125 6.890625 -7.972656 7.453125 -7.671875 C 8.015625 -7.367188 8.441406 -6.957031 8.734375 -6.4375 C 9.035156 -5.914062 9.1875 -5.328125 9.1875 -4.671875 C 9.1875 -3.921875 9.066406 -3.242188 8.828125 -2.640625 C 8.585938 -2.046875 8.253906 -1.539062 7.828125 -1.125 C 7.410156 -0.707031 6.921875 -0.390625 6.359375 -0.171875 C 5.804688 0.046875 5.207031 0.15625 4.5625 0.15625 C 3.75 0.15625 3.054688 0.0078125 2.484375 -0.28125 C 1.921875 -0.582031 1.488281 -0.992188 1.1875 -1.515625 C 0.894531 -2.046875 0.75 -2.632812 0.75 -3.28125 C 0.75 -4.039062 0.867188 -4.71875 1.109375 -5.3125 C 1.347656 -5.90625 1.675781 -6.410156 2.09375 -6.828125 C 2.519531 -7.242188 3.015625 -7.5625 3.578125 -7.78125 C 4.140625 -8.007812 4.742188 -8.125 5.390625 -8.125 Z M 4.625 -1.359375 C 5.019531 -1.359375 5.367188 -1.457031 5.671875 -1.65625 C 5.972656 -1.851562 6.222656 -2.109375 6.421875 -2.421875 C 6.617188 -2.742188 6.765625 -3.097656 6.859375 -3.484375 C 6.953125 -3.867188 7 -4.242188 7 -4.609375 C 7 -5.191406 6.851562 -5.664062 6.5625 -6.03125 C 6.28125 -6.40625 5.863281 -6.59375 5.3125 -6.59375 C 4.914062 -6.59375 4.566406 -6.492188 4.265625 -6.296875 C 3.960938 -6.109375 3.710938 -5.851562 3.515625 -5.53125 C 3.328125 -5.207031 3.179688 -4.851562 3.078125 -4.46875 C 2.984375 -4.082031 2.9375 -3.707031 2.9375 -3.34375 C 2.9375 -2.757812 3.078125 -2.28125 3.359375 -1.90625 C 3.648438 -1.539062 4.070312 -1.359375 4.625 -1.359375 Z M 4.625 -1.359375 "/></g></g></g><g fill="#ff3131" fill-opacity="1"><g transform="translate(250.126087, 217.231651)"><g><path d="M 12.734375 -7.953125 L 9.328125 0 L 6.5625 0 L 6.5625 -5.828125 L 4.53125 0 L 1.75 0 L 1.171875 -7.953125 L 3.296875 -7.953125 L 3.453125 -1.78125 L 5.4375 -7.84375 L 8.421875 -7.84375 L 8.25 -1.6875 L 10.4375 -7.953125 Z M 12.734375 -7.953125 "/></g></g></g><g fill="#ff3131" fill-opacity="1"><g transform="translate(261.485026, 217.231651)"><g><path d="M 6.65625 -1.75 L 6.34375 0 L 0.234375 0 L 1.65625 -7.953125 L 3.71875 -7.953125 L 2.625 -1.75 Z M 6.65625 -1.75 "/></g></g></g><g fill="#ff3131" fill-opacity="1"><g transform="translate(268.231067, 217.231651)"><g><path d="M 5.21875 -2.0625 L 2.71875 -2.0625 L 1.703125 0 L -0.5 0 L 3.703125 -7.953125 L 6.390625 -7.953125 L 7.78125 0 L 5.53125 0 Z M 5 -3.671875 L 4.65625 -6.03125 L 3.5 -3.671875 Z M 5 -3.671875 "/></g></g></g><g fill="#ff3131" fill-opacity="1"><g transform="translate(276.02654, 217.231651)"><g><path d="M 9.265625 -7.953125 L 7.859375 0 L 5.140625 0 L 3.234375 -5.265625 L 2.3125 0 L 0.234375 0 L 1.65625 -7.953125 L 4.234375 -7.953125 L 6.234375 -2.453125 L 7.1875 -7.953125 Z M 9.265625 -7.953125 "/></g></g></g><g fill="#ff3131" fill-opacity="1"><g transform="translate(284.733064, 217.231651)"><g><path d="M 3.4375 -6.34375 L 3.171875 -4.796875 L 6.84375 -4.796875 L 6.5625 -3.1875 L 2.890625 -3.1875 L 2.609375 -1.609375 L 6.625 -1.609375 L 6.34375 0 L 0.234375 0 L 1.65625 -7.953125 L 7.640625 -7.953125 L 7.34375 -6.34375 Z M 3.4375 -6.34375 "/></g></g></g></svg>